<svg width="25" height="24" viewBox="0 0 25 24" fill="none" xmlns="http://www.w3.org/2000/svg">
<path d="M16.2419 7C17.6935 7 18.5 8.20401 18.5 10.3779C18.5 13.3545 17.1774 15.495 14.6613 17L13.8226 15.5284C15.6613 14.291 16.5645 12.9866 16.5645 10.8462L16.1129 8.37124L17.629 10.2776C17.1774 10.7124 16.8226 10.9465 16.2419 10.9465C15.2419 10.9465 14.3387 10.2776 14.3387 9.04013C14.3387 7.76923 15.1129 7 16.2419 7ZM9.91935 7C11.3387 7 12.1774 8.20401 12.1774 10.3779C12.1774 13.3545 10.8226 15.495 8.33871 17L7.5 15.5284C9.30645 14.291 10.2097 12.9866 10.2097 10.8462L9.82258 8.37124L11.3065 10.2776C10.8548 10.7124 10.4677 10.9465 9.91935 10.9465C8.91935 10.9465 8.01613 10.2776 8.01613 9.04013C8.01613 7.76923 8.79032 7 9.91935 7Z" fill="black" fill-opacity="0.7"/>
</svg>
