<svg width="25" height="24" viewBox="0 0 16 16" fill="none" xmlns="http://www.w3.org/2000/svg">
<g clip-path="url(#clip0_15587_731)">
<path fill-rule="evenodd" clip-rule="evenodd" d="M8.94277 2.39052C9.46347 2.91122 9.46347 3.75544 8.94277 4.27614C8.42207 4.79684 7.57785 4.79684 7.05715 4.27614C6.53645 3.75545 6.53645 2.91122 7.05715 2.39052C7.57785 1.86983 8.42207 1.86983 8.94277 2.39052ZM8.94277 7.0572C9.46347 7.5779 9.46347 8.42212 8.94277 8.94282C8.42207 9.46352 7.57785 9.46352 7.05715 8.94282C6.53645 8.42212 6.53645 7.5779 7.05715 7.0572C7.57785 6.5365 8.42207 6.5365 8.94277 7.0572ZM8.94277 13.6095C9.46347 13.0888 9.46347 12.2446 8.94277 11.7239C8.42207 11.2032 7.57785 11.2032 7.05715 11.7239C6.53645 12.2446 6.53645 13.0888 7.05715 13.6095C7.57785 14.1302 8.42207 14.1302 8.94277 13.6095Z" fill="#30322F"/>
</g>
<defs>
<clipPath id="clip0_15587_731">
<rect width="16" height="16" fill="white"/>
</clipPath>
</defs>
</svg>
