<svg width="32" height="32" viewBox="0 0 32 32" fill="none" xmlns="http://www.w3.org/2000/svg">
<path fill-rule="evenodd" clip-rule="evenodd" d="M23.4 11.3399L20.66 8.59986C19.9197 7.90451 18.7758 7.87441 18 8.52986L9 17.5299C8.67677 17.8558 8.47551 18.2831 8.43 18.7399L8 22.9099L8 22.9099C7.97273 23.2064 8.07904 23.4997 8.29 23.7099H8.29C8.47872 23.897 8.7342 24.0014 9 23.9999H9.09L13.26 23.6199C13.7168 23.5744 14.144 23.3731 14.47 23.0499L23.47 14.0499C24.1973 13.2815 24.166 12.0696 23.4 11.3399L23.4 11.3399ZM20 14.6799L17.32 11.9999L19.27 9.99986L22 12.7299L20 14.6799Z" fill="black" fill-opacity="0.7"/>
</svg>
