<svg width="32" height="32" viewBox="0 0 32 32" fill="none" xmlns="http://www.w3.org/2000/svg">
<path fill-rule="evenodd" clip-rule="evenodd" d="M24.71 23.29L21.31 19.9C22.407 18.5024 23.0022 16.7767 23 15C23 10.5817 19.4183 7 15 7C10.5817 7 7 10.5817 7 15C7 19.4183 10.5817 23 15 23C16.7767 23.0022 18.5025 22.407 19.9 21.31L23.29 24.71C23.6789 25.1021 24.3121 25.1047 24.7042 24.7158C24.7061 24.7139 24.7081 24.7119 24.71 24.71V24.71C25.1021 24.3211 25.1047 23.6879 24.7158 23.2958C24.7139 23.2939 24.7119 23.2919 24.71 23.29L24.71 23.29ZM9 15V15C9 11.6863 11.6863 9 15 9C18.3137 9 21 11.6863 21 15C21 18.3137 18.3137 21 15 21C11.6863 21 9 18.3137 9 15L9 15Z" fill="#30322F"/>
</svg>
